<svg xmlns="http://www.w3.org/2000/svg" version="1.1" xmlns:xlink="http://www.w3.org/1999/xlink" xmlns:svgjs="http://svgjs.com/svgjs" width="1440" height="560" preserveAspectRatio="none" viewBox="0 0 1440 560"><g mask="url(&quot;#SvgjsMask6239&quot;)" fill="none"><rect width="1440" height="560" x="0" y="0" fill="url(#SvgjsLinearGradient6240)"></rect><path d="M1488 560L0 560 L0 318.01Q71.04 317.05, 72 388.09Q117.84 313.93, 192 359.78Q205.7 301.48, 264 315.17Q309.87 289.04, 336 334.91Q383.36 310.27, 408 357.63Q438.41 316.04, 480 346.46Q552.44 298.9, 600 371.34Q616.54 315.88, 672 332.42Q723.13 263.55, 792 314.67Q849.86 300.52, 864 358.38Q934.86 309.24, 984 380.1Q1001.07 325.17, 1056 342.23Q1123.34 289.56, 1176 356.9Q1249.26 310.16, 1296 383.43Q1324.58 292, 1416 320.58Q1458.09 290.67, 1488 332.76z" fill="rgba(24, 47, 93, 1)"></path><path d="M1512 560L0 560 L0 383.34Q44.94 356.28, 72 401.23Q136.15 393.38, 144 457.53Q163.89 357.42, 264 377.32Q305.4 346.72, 336 388.12Q395.86 375.98, 408 435.84Q452.95 408.79, 480 453.75Q516.68 370.43, 600 407.1Q649.13 384.23, 672 433.35Q707.35 348.7, 792 384.04Q842.38 362.42, 864 412.8Q916.91 345.72, 984 398.63Q1011.67 354.3, 1056 381.97Q1142.11 348.08, 1176 434.18Q1220.85 407.03, 1248 451.88Q1263.15 395.03, 1320 410.19Q1348.37 366.56, 1392 394.93Q1443.85 326.77, 1512 378.62z" fill="#25467d"></path><path d="M1464 560L0 560 L0 439.77Q36.92 404.69, 72 441.61Q119.23 416.84, 144 464.07Q174.5 422.57, 216 453.07Q245.53 410.6, 288 440.13Q342.59 422.72, 360 477.3Q431.47 428.77, 480 500.25Q548.16 448.41, 600 516.57Q633.03 429.6, 720 462.63Q774.42 397.06, 840 451.48Q894.91 434.39, 912 489.31Q981.39 438.7, 1032 508.09Q1072.87 428.96, 1152 469.83Q1198.36 396.19, 1272 442.55Q1350.82 401.37, 1392 480.19Q1421.92 438.12, 1464 468.04z" fill="#356cb1"></path><path d="M1464 560L0 560 L0 544.48Q47.56 472.04, 120 519.6Q211.33 490.93, 240 582.26Q287.97 510.23, 360 558.2Q385.43 511.63, 432 537.06Q482.88 467.93, 552 518.81Q602.57 449.38, 672 499.94Q757.31 465.25, 792 550.55Q837.2 523.75, 864 568.94Q899.02 483.97, 984 518.99Q1036.08 499.07, 1056 551.14Q1106.87 530.01, 1128 580.88Q1139.8 520.67, 1200 532.47Q1246.74 459.21, 1320 505.95Q1378.94 492.89, 1392 551.83Q1443.38 531.22, 1464 582.6z" fill="white"></path></g><defs><mask id="SvgjsMask6239"><rect width="1440" height="560" fill="#ffffff"></rect></mask><linearGradient x1="50%" y1="0%" x2="50%" y2="100%" gradientUnits="userSpaceOnUse" id="SvgjsLinearGradient6240"><stop stop-color="rgba(14, 42, 71, 1)" offset="0"></stop><stop stop-color="rgba(0, 45, 103, 1)" offset="1"></stop></linearGradient></defs></svg>