<svg xmlns="http://www.w3.org/2000/svg" version="1.1" xmlns:xlink="http://www.w3.org/1999/xlink" xmlns:svgjs="http://svgjs.com/svgjs" width="1440" height="560" preserveAspectRatio="none" viewBox="0 0 1440 560"><g mask="url(&quot;#SvgjsMask1686&quot;)" fill="none"><rect width="1440" height="560" x="0" y="0" fill="#0e2a47"></rect><g transform="translate(0, 0)" stroke-linecap="round" stroke="url(#SvgjsLinearGradient1687)"><path d="M400 196.92 L400 363.08" stroke-width="30"></path><path d="M440 272.69 L440 287.31" stroke-width="30"></path><path d="M480 217.22 L480 247.22" stroke-width="30"></path><path d="M480 292.22 L480 342.77" stroke-width="30"></path><path d="M520 208.97 L520 351.02" stroke-width="30"></path><path d="M560 175.46 L560 205.46" stroke-width="30"></path><path d="M560 250.46 L560 280.46000000000004" stroke-width="30"></path><path d="M560 325.46000000000004 L560 384.54" stroke-width="30"></path><path d="M600 253.4 L600 306.61" stroke-width="30"></path><path d="M640 191.19 L640 221.19" stroke-width="30"></path><path d="M640 266.19 L640 368.81" stroke-width="30"></path><path d="M680 248.56 L680 311.44" stroke-width="30"></path><path d="M720 234.4 L720 325.61" stroke-width="30"></path><path d="M760 194.19 L760 254.19" stroke-width="30"></path><path d="M760 299.19 L760 365.81" stroke-width="30"></path><path d="M800 200.06 L800 359.94" stroke-width="30"></path><path d="M840 273.36 L840 286.64" stroke-width="30"></path><path d="M880 228.28 L880 331.73" stroke-width="30"></path><path d="M920 224.21 L920 335.79" stroke-width="30"></path><path d="M960 192.46 L960 367.54" stroke-width="30"></path><path d="M1000 192.73 L1000 222.73" stroke-width="30"></path><path d="M1000 267.73 L1000 367.27" stroke-width="30"></path><path d="M1040 202 L1040 358" stroke-width="30"></path></g></g><defs><mask id="SvgjsMask1686"><rect width="1440" height="560" fill="#ffffff"></rect></mask><linearGradient x1="367.2" y1="280" x2="1072.8" y2="280" gradientUnits="userSpaceOnUse" id="SvgjsLinearGradient1687"><stop stop-color="#3a7cc3" offset="0"></stop><stop stop-color="#dd1133" offset="1"></stop></linearGradient></defs></svg>